<svg width="529" height="37" viewBox="0 0 529 37" fill="none" xmlns="http://www.w3.org/2000/svg">
<path d="M11.344 30.32C9.70133 30.32 8.18667 30.032 6.8 29.456C5.41333 28.8587 4.208 28.0373 3.184 26.992C2.18133 25.9467 1.40267 24.7307 0.848 23.344C0.293333 21.9573 0.016 20.464 0.016 18.864C0.016 17.2427 0.293333 15.7493 0.848 14.384C1.40267 12.9973 2.18133 11.792 3.184 10.768C4.18667 9.72267 5.37067 8.92267 6.736 8.368C8.12267 7.792 9.648 7.504 11.312 7.504C12.9547 7.504 14.4693 7.792 15.856 8.368C17.264 8.944 18.4693 9.744 19.472 10.768C20.4747 11.792 21.2533 12.9973 21.808 14.384C22.3627 15.7707 22.64 17.2747 22.64 18.896C22.64 20.496 22.3627 21.9893 21.808 23.376C21.2533 24.7627 20.4747 25.9787 19.472 27.024C18.4693 28.0693 17.2747 28.88 15.888 29.456C14.5227 30.032 13.008 30.32 11.344 30.32ZM11.6 25.264C10.4053 25.264 9.31733 24.9867 8.336 24.432C7.35467 23.856 6.576 23.088 6 22.128C5.44533 21.168 5.168 20.08 5.168 18.864C5.168 17.6693 5.44533 16.592 6 15.632C6.576 14.672 7.35467 13.9147 8.336 13.36C9.33867 12.8053 10.4373 12.528 11.632 12.528C12.5493 12.528 13.4133 12.6987 14.224 13.04C15.0347 13.3813 15.7387 13.8827 16.336 14.544L14.64 16.272C14.256 15.8453 13.808 15.5253 13.296 15.312C12.8053 15.0987 12.2507 14.992 11.632 14.992C10.928 14.992 10.288 15.1627 9.712 15.504C9.136 15.824 8.67733 16.2827 8.336 16.88C8.016 17.456 7.856 18.1173 7.856 18.864C7.856 19.632 8.016 20.3147 8.336 20.912C8.67733 21.5093 9.136 21.968 9.712 22.288C10.288 22.608 10.928 22.768 11.632 22.768C12.272 22.768 12.848 22.6613 13.36 22.448C13.872 22.2133 14.2987 21.8933 14.64 21.488L16.336 23.216C15.76 23.8773 15.056 24.3893 14.224 24.752C13.4133 25.0933 12.5387 25.264 11.6 25.264ZM11.312 29.008C13.2747 29.008 15.0027 28.56 16.496 27.664C17.9893 26.768 19.152 25.552 19.984 24.016C20.8373 22.48 21.264 20.7627 21.264 18.864C21.264 16.9867 20.8373 15.2907 19.984 13.776C19.152 12.24 17.9893 11.024 16.496 10.128C15.0027 9.232 13.2747 8.784 11.312 8.784C9.34933 8.784 7.62133 9.232 6.128 10.128C4.63467 11.0027 3.472 12.208 2.64 13.744C1.808 15.2587 1.392 16.9653 1.392 18.864C1.392 20.7627 1.808 22.48 2.64 24.016C3.49333 25.552 4.66667 26.768 6.16 27.664C7.65333 28.56 9.37067 29.008 11.312 29.008ZM25.7122 28.176L33.9043 19.536C34.7363 18.6827 35.3869 17.9467 35.8563 17.328C36.3256 16.688 36.6563 16.1013 36.8483 15.568C37.0616 15.0347 37.1683 14.48 37.1683 13.904C37.1683 12.7733 36.8056 11.888 36.0803 11.248C35.3549 10.608 34.4163 10.288 33.2643 10.288C32.1336 10.288 31.1416 10.5653 30.2883 11.12C29.4349 11.6533 28.6776 12.4853 28.0163 13.616L25.9043 11.856C26.7789 10.4053 27.8349 9.31733 29.0723 8.592C30.3096 7.84533 31.7389 7.472 33.3603 7.472C34.7256 7.472 35.9096 7.73867 36.9123 8.272C37.9363 8.80533 38.7256 9.552 39.2803 10.512C39.8349 11.472 40.1123 12.592 40.1123 13.872C40.1123 14.7893 39.9949 15.6107 39.7603 16.336C39.5469 17.0613 39.1523 17.808 38.5763 18.576C38.0216 19.3227 37.2429 20.2187 36.2403 21.264L29.6163 28.08L25.7122 28.176ZM25.7122 30V28.176L28.2723 27.312H40.6243V30H25.7122ZM52.5288 30.32C50.8648 30.32 49.3394 29.8507 47.9528 28.912C46.5874 27.9733 45.4994 26.6507 44.6888 24.944C43.8781 23.216 43.4728 21.1893 43.4728 18.864C43.4728 16.5387 43.8674 14.5227 44.6568 12.816C45.4674 11.1093 46.5554 9.79733 47.9208 8.88C49.2861 7.94133 50.7901 7.472 52.4328 7.472C54.1181 7.472 55.6434 7.94133 57.0088 8.88C58.3741 9.79733 59.4514 11.1093 60.2408 12.816C61.0514 14.5227 61.4568 16.5493 61.4568 18.896C61.4568 21.2213 61.0514 23.248 60.2408 24.976C59.4514 26.6827 58.3741 28.0053 57.0088 28.944C55.6648 29.8613 54.1714 30.32 52.5288 30.32ZM52.4648 27.472C53.6381 27.472 54.6621 27.152 55.5368 26.512C56.4328 25.8507 57.1368 24.88 57.6488 23.6C58.1608 22.32 58.4167 20.7413 58.4167 18.864C58.4167 16.9867 58.1608 15.4187 57.6488 14.16C57.1368 12.88 56.4328 11.92 55.5368 11.28C54.6408 10.6187 53.6061 10.288 52.4328 10.288C51.2808 10.288 50.2568 10.6187 49.3608 11.28C48.4648 11.92 47.7608 12.88 47.2488 14.16C46.7581 15.4187 46.5128 16.9867 46.5128 18.864C46.5128 20.7413 46.7581 22.32 47.2488 23.6C47.7608 24.88 48.4648 25.8507 49.3608 26.512C50.2568 27.152 51.2914 27.472 52.4648 27.472ZM63.9622 28.176L72.1543 19.536C72.9863 18.6827 73.6369 17.9467 74.1063 17.328C74.5756 16.688 74.9063 16.1013 75.0983 15.568C75.3116 15.0347 75.4183 14.48 75.4183 13.904C75.4183 12.7733 75.0556 11.888 74.3303 11.248C73.6049 10.608 72.6663 10.288 71.5143 10.288C70.3836 10.288 69.3916 10.5653 68.5383 11.12C67.6849 11.6533 66.9276 12.4853 66.2663 13.616L64.1543 11.856C65.0289 10.4053 66.0849 9.31733 67.3223 8.592C68.5596 7.84533 69.9889 7.472 71.6103 7.472C72.9756 7.472 74.1596 7.73867 75.1623 8.272C76.1863 8.80533 76.9756 9.552 77.5303 10.512C78.0849 11.472 78.3623 12.592 78.3623 13.872C78.3623 14.7893 78.2449 15.6107 78.0103 16.336C77.7969 17.0613 77.4023 17.808 76.8263 18.576C76.2716 19.3227 75.4929 20.2187 74.4903 21.264L67.8663 28.08L63.9622 28.176ZM63.9622 30V28.176L66.5223 27.312H78.8743V30H63.9622ZM81.2747 22.352L89.3708 7.792H92.7628L84.5068 22.352H81.2747ZM81.2747 24.208V22.352L82.5548 21.52H98.2987V24.208H81.2747ZM92.1228 30V15.312H95.0988V30H92.1228ZM102.671 30.32C102.074 30.32 101.573 30.1173 101.167 29.712C100.783 29.2853 100.591 28.784 100.591 28.208C100.591 27.6107 100.783 27.12 101.167 26.736C101.573 26.3307 102.074 26.128 102.671 26.128C103.269 26.128 103.759 26.3307 104.143 26.736C104.549 27.12 104.751 27.6107 104.751 28.208C104.751 28.784 104.549 29.2853 104.143 29.712C103.759 30.1173 103.269 30.32 102.671 30.32ZM126.673 30.32C125.073 30.32 123.59 30.032 122.225 29.456C120.859 28.8587 119.665 28.0373 118.641 26.992C117.638 25.9467 116.859 24.7307 116.305 23.344C115.75 21.9573 115.473 20.4747 115.473 18.896C115.473 17.296 115.75 15.8027 116.305 14.416C116.859 13.0293 117.638 11.824 118.641 10.8C119.665 9.75467 120.849 8.944 122.193 8.368C123.558 7.77066 125.041 7.472 126.641 7.472C128.39 7.472 129.926 7.77066 131.249 8.368C132.571 8.96533 133.745 9.776 134.769 10.8L132.689 12.88C131.985 12.0907 131.121 11.472 130.097 11.024C129.094 10.576 127.942 10.352 126.641 10.352C125.467 10.352 124.39 10.5653 123.409 10.992C122.427 11.3973 121.574 11.984 120.849 12.752C120.123 13.52 119.558 14.4267 119.153 15.472C118.769 16.5173 118.577 17.6587 118.577 18.896C118.577 20.1333 118.769 21.2747 119.153 22.32C119.558 23.3653 120.123 24.272 120.849 25.04C121.574 25.808 122.427 26.4053 123.409 26.832C124.39 27.2373 125.467 27.44 126.641 27.44C128.027 27.44 129.233 27.216 130.257 26.768C131.281 26.2987 132.145 25.6693 132.849 24.88L134.929 26.928C133.905 27.9947 132.699 28.8267 131.313 29.424C129.947 30.0213 128.401 30.32 126.673 30.32ZM138.112 30V14.8H140.992V30H138.112ZM140.992 21.328L139.904 20.848C139.904 18.9067 140.352 17.36 141.248 16.208C142.144 15.056 143.435 14.48 145.12 14.48C145.888 14.48 146.581 14.6187 147.2 14.896C147.819 15.152 148.395 15.5893 148.928 16.208L147.04 18.16C146.72 17.8187 146.368 17.5733 145.984 17.424C145.6 17.2747 145.152 17.2 144.64 17.2C143.573 17.2 142.699 17.5413 142.016 18.224C141.333 18.9067 140.992 19.9413 140.992 21.328ZM156.92 30.32C155.533 30.32 154.274 29.9787 153.144 29.296C152.013 28.592 151.117 27.6427 150.456 26.448C149.816 25.2533 149.496 23.9093 149.496 22.416C149.496 20.9227 149.816 19.5787 150.456 18.384C151.117 17.1893 152.002 16.24 153.112 15.536C154.242 14.832 155.512 14.48 156.92 14.48C158.072 14.48 159.096 14.7253 159.992 15.216C160.909 15.6853 161.645 16.3467 162.2 17.2C162.754 18.032 163.064 19.0027 163.128 20.112V24.688C163.064 25.776 162.754 26.7467 162.2 27.6C161.666 28.4533 160.941 29.1253 160.024 29.616C159.128 30.0853 158.093 30.32 156.92 30.32ZM157.4 27.6C158.829 27.6 159.981 27.12 160.856 26.16C161.73 25.1787 162.168 23.9307 162.168 22.416C162.168 21.3707 161.965 20.464 161.56 19.696C161.176 18.9067 160.621 18.2987 159.896 17.872C159.17 17.424 158.328 17.2 157.368 17.2C156.408 17.2 155.554 17.424 154.808 17.872C154.082 18.32 153.506 18.9387 153.08 19.728C152.674 20.496 152.472 21.3813 152.472 22.384C152.472 23.408 152.674 24.3147 153.08 25.104C153.506 25.872 154.093 26.48 154.84 26.928C155.586 27.376 156.44 27.6 157.4 27.6ZM161.976 30V25.904L162.52 22.192L161.976 18.512V14.8H164.888V30H161.976ZM171.194 30V12.528C171.194 11.3973 171.44 10.416 171.93 9.584C172.421 8.73067 173.093 8.05867 173.946 7.568C174.821 7.07733 175.834 6.832 176.986 6.832C177.861 6.832 178.618 6.98133 179.258 7.28C179.898 7.57867 180.485 8.016 181.018 8.592L179.13 10.448C178.853 10.1493 178.544 9.92533 178.202 9.776C177.861 9.60533 177.445 9.52 176.954 9.52C176.037 9.52 175.322 9.78667 174.81 10.32C174.32 10.8533 174.074 11.5893 174.074 12.528V30H171.194ZM167.45 17.424V14.8H178.906V17.424H167.45ZM183.229 30V8.432H186.109V30H183.229ZM179.485 17.424V14.8H189.853V17.424H179.485ZM199.246 30.32C197.731 30.32 196.366 29.9787 195.15 29.296C193.934 28.592 192.974 27.6427 192.27 26.448C191.566 25.2533 191.214 23.8987 191.214 22.384C191.214 20.8907 191.555 19.5467 192.238 18.352C192.942 17.1573 193.88 16.2187 195.054 15.536C196.248 14.832 197.582 14.48 199.054 14.48C200.462 14.48 201.699 14.8 202.766 15.44C203.854 16.08 204.696 16.9653 205.294 18.096C205.912 19.2267 206.222 20.5067 206.222 21.936C206.222 22.1493 206.211 22.384 206.19 22.64C206.168 22.8747 206.126 23.152 206.062 23.472H193.23V21.072H204.526L203.47 22C203.47 20.976 203.288 20.112 202.926 19.408C202.563 18.6827 202.051 18.128 201.39 17.744C200.728 17.3387 199.928 17.136 198.99 17.136C198.008 17.136 197.144 17.3493 196.398 17.776C195.651 18.2027 195.075 18.8 194.67 19.568C194.264 20.336 194.062 21.2427 194.062 22.288C194.062 23.3547 194.275 24.2933 194.702 25.104C195.128 25.8933 195.736 26.512 196.526 26.96C197.315 27.3867 198.222 27.6 199.246 27.6C200.099 27.6 200.878 27.4507 201.582 27.152C202.307 26.8533 202.926 26.4053 203.438 25.808L205.294 27.696C204.568 28.5493 203.672 29.2 202.606 29.648C201.56 30.096 200.44 30.32 199.246 30.32ZM215.794 30.32C214.386 30.32 213.127 29.9787 212.018 29.296C210.909 28.592 210.023 27.6427 209.362 26.448C208.722 25.2533 208.402 23.9093 208.402 22.416C208.402 20.9227 208.722 19.5787 209.362 18.384C210.023 17.1893 210.909 16.24 212.018 15.536C213.127 14.832 214.386 14.48 215.794 14.48C216.925 14.48 217.949 14.7253 218.866 15.216C219.783 15.6853 220.519 16.3467 221.074 17.2C221.65 18.032 221.97 19.0027 222.034 20.112V24.688C221.97 25.776 221.661 26.7467 221.106 27.6C220.551 28.4533 219.815 29.1253 218.898 29.616C217.981 30.0853 216.946 30.32 215.794 30.32ZM216.274 27.6C217.234 27.6 218.066 27.376 218.77 26.928C219.495 26.48 220.061 25.872 220.466 25.104C220.871 24.3147 221.074 23.4187 221.074 22.416C221.074 21.3707 220.861 20.464 220.434 19.696C220.029 18.928 219.463 18.32 218.738 17.872C218.034 17.424 217.202 17.2 216.242 17.2C215.282 17.2 214.439 17.424 213.714 17.872C212.989 18.32 212.413 18.9387 211.986 19.728C211.581 20.496 211.378 21.3813 211.378 22.384C211.378 23.408 211.581 24.3147 211.986 25.104C212.413 25.872 212.989 26.48 213.714 26.928C214.461 27.376 215.314 27.6 216.274 27.6ZM223.794 30H220.882V25.904L221.426 22.192L220.882 18.512V7.152H223.794V30ZM238.995 30L232.979 14.8H235.987L240.339 26.64H239.379L243.699 14.8H245.363L249.683 26.64H248.723L253.075 14.8H256.083L250.099 30H248.403L244.019 18.512H245.075L240.659 30H238.995ZM258.425 30V14.8H261.305V30H258.425ZM259.865 11.76C259.332 11.76 258.895 11.5893 258.553 11.248C258.212 10.8853 258.041 10.4373 258.041 9.904C258.041 9.392 258.212 8.96533 258.553 8.624C258.895 8.26133 259.332 8.08 259.865 8.08C260.399 8.08 260.836 8.26133 261.177 8.624C261.519 8.96533 261.689 9.392 261.689 9.904C261.689 10.4373 261.519 10.8853 261.177 11.248C260.836 11.5893 260.399 11.76 259.865 11.76ZM267.886 30V8.432H270.766V30H267.886ZM264.142 17.424V14.8H274.51V17.424H264.142ZM288.083 30V21.136C288.083 19.984 287.72 19.0347 286.995 18.288C286.269 17.5413 285.331 17.168 284.179 17.168C283.411 17.168 282.728 17.3387 282.131 17.68C281.533 18.0213 281.064 18.4907 280.723 19.088C280.381 19.6853 280.211 20.368 280.211 21.136L279.027 20.464C279.027 19.312 279.283 18.288 279.795 17.392C280.307 16.496 281.021 15.792 281.939 15.28C282.856 14.7467 283.891 14.48 285.043 14.48C286.195 14.48 287.208 14.736 288.083 15.248C288.979 15.76 289.683 16.4747 290.195 17.392C290.707 18.3093 290.963 19.3653 290.963 20.56V30H288.083ZM277.331 30V7.152H280.211V30H277.331ZM299.406 32.24H331.406V0.24H299.406V32.24ZM346.863 30.32C345.113 30.32 343.62 30 342.383 29.36C341.145 28.72 340.047 27.792 339.087 26.576L341.135 24.528C341.839 25.5093 342.649 26.256 343.567 26.768C344.484 27.2587 345.615 27.504 346.959 27.504C348.281 27.504 349.337 27.216 350.127 26.64C350.937 26.064 351.343 25.2747 351.343 24.272C351.343 23.44 351.151 22.768 350.767 22.256C350.383 21.744 349.86 21.328 349.199 21.008C348.559 20.6667 347.855 20.368 347.087 20.112C346.319 19.8347 345.551 19.5467 344.783 19.248C344.015 18.928 343.311 18.544 342.671 18.096C342.031 17.6267 341.508 17.0187 341.103 16.272C340.719 15.5253 340.527 14.5867 340.527 13.456C340.527 12.1973 340.825 11.1307 341.423 10.256C342.041 9.36 342.873 8.67733 343.919 8.208C344.985 7.71733 346.18 7.472 347.503 7.472C348.953 7.472 350.255 7.76 351.407 8.336C352.559 8.89067 353.497 9.62667 354.222 10.544L352.175 12.592C351.513 11.824 350.799 11.248 350.031 10.864C349.284 10.48 348.42 10.288 347.439 10.288C346.244 10.288 345.295 10.5547 344.591 11.088C343.887 11.6 343.535 12.3253 343.535 13.264C343.535 14.0107 343.727 14.6187 344.111 15.088C344.516 15.536 345.039 15.92 345.679 16.24C346.319 16.56 347.023 16.8587 347.791 17.136C348.58 17.392 349.359 17.68 350.127 18C350.895 18.32 351.599 18.7253 352.239 19.216C352.879 19.7067 353.391 20.3467 353.775 21.136C354.18 21.904 354.383 22.8747 354.383 24.048C354.383 26.0107 353.7 27.5467 352.335 28.656C350.991 29.7653 349.167 30.32 346.863 30.32ZM364.069 30.32C362.81 30.32 361.679 30.0427 360.677 29.488C359.695 28.912 358.927 28.1227 358.373 27.12C357.818 26.1173 357.541 24.9547 357.541 23.632V14.8H360.421V23.504C360.421 24.336 360.559 25.0613 360.837 25.68C361.135 26.2773 361.562 26.736 362.117 27.056C362.671 27.376 363.322 27.536 364.069 27.536C365.199 27.536 366.085 27.184 366.725 26.48C367.365 25.7547 367.685 24.7627 367.685 23.504V14.8H370.565V23.632C370.565 24.9547 370.287 26.1173 369.733 27.12C369.178 28.1227 368.41 28.912 367.429 29.488C366.469 30.0427 365.349 30.32 364.069 30.32ZM382.425 30.32C381.273 30.32 380.227 30.0853 379.289 29.616C378.371 29.1253 377.635 28.4533 377.081 27.6C376.526 26.7467 376.217 25.776 376.153 24.688V20.112C376.217 19.0027 376.526 18.032 377.081 17.2C377.657 16.3467 378.403 15.6853 379.321 15.216C380.259 14.7253 381.294 14.48 382.425 14.48C383.811 14.48 385.059 14.832 386.169 15.536C387.299 16.24 388.185 17.1893 388.825 18.384C389.465 19.5787 389.785 20.9227 389.785 22.416C389.785 23.9093 389.465 25.2533 388.825 26.448C388.185 27.6427 387.299 28.592 386.169 29.296C385.059 29.9787 383.811 30.32 382.425 30.32ZM374.424 36.368V14.8H377.305V18.8L376.761 22.48L377.305 26.192V36.368H374.424ZM381.945 27.6C382.905 27.6 383.747 27.376 384.473 26.928C385.198 26.48 385.774 25.872 386.201 25.104C386.627 24.3147 386.841 23.408 386.841 22.384C386.841 21.3813 386.627 20.4853 386.201 19.696C385.774 18.9067 385.198 18.2987 384.473 17.872C383.747 17.424 382.915 17.2 381.977 17.2C381.017 17.2 380.174 17.424 379.449 17.872C378.723 18.2987 378.158 18.9067 377.753 19.696C377.347 20.4853 377.145 21.392 377.145 22.416C377.145 23.4187 377.337 24.3147 377.721 25.104C378.126 25.872 378.691 26.48 379.417 26.928C380.163 27.376 381.006 27.6 381.945 27.6ZM401.05 30.32C399.898 30.32 398.852 30.0853 397.914 29.616C396.996 29.1253 396.26 28.4533 395.706 27.6C395.151 26.7467 394.842 25.776 394.778 24.688V20.112C394.842 19.0027 395.151 18.032 395.706 17.2C396.282 16.3467 397.028 15.6853 397.946 15.216C398.884 14.7253 399.919 14.48 401.05 14.48C402.436 14.48 403.684 14.832 404.794 15.536C405.924 16.24 406.81 17.1893 407.45 18.384C408.09 19.5787 408.41 20.9227 408.41 22.416C408.41 23.9093 408.09 25.2533 407.45 26.448C406.81 27.6427 405.924 28.592 404.794 29.296C403.684 29.9787 402.436 30.32 401.05 30.32ZM393.049 36.368V14.8H395.93V18.8L395.386 22.48L395.93 26.192V36.368H393.049ZM400.57 27.6C401.53 27.6 402.372 27.376 403.098 26.928C403.823 26.48 404.399 25.872 404.826 25.104C405.252 24.3147 405.466 23.408 405.466 22.384C405.466 21.3813 405.252 20.4853 404.826 19.696C404.399 18.9067 403.823 18.2987 403.098 17.872C402.372 17.424 401.54 17.2 400.602 17.2C399.642 17.2 398.799 17.424 398.074 17.872C397.348 18.2987 396.783 18.9067 396.378 19.696C395.972 20.4853 395.77 21.392 395.77 22.416C395.77 23.4187 395.962 24.3147 396.346 25.104C396.751 25.872 397.316 26.48 398.042 26.928C398.788 27.376 399.631 27.6 400.57 27.6ZM418.619 30.32C417.125 30.32 415.781 29.968 414.587 29.264C413.392 28.56 412.443 27.6107 411.739 26.416C411.035 25.2 410.683 23.8453 410.683 22.352C410.683 20.88 411.035 19.5573 411.739 18.384C412.443 17.1893 413.392 16.24 414.587 15.536C415.781 14.832 417.125 14.48 418.619 14.48C420.091 14.48 421.424 14.832 422.619 15.536C423.835 16.2187 424.795 17.1573 425.499 18.352C426.203 19.5467 426.555 20.88 426.555 22.352C426.555 23.8453 426.203 25.2 425.499 26.416C424.795 27.6107 423.835 28.56 422.619 29.264C421.424 29.968 420.091 30.32 418.619 30.32ZM418.619 27.536C419.579 27.536 420.432 27.312 421.179 26.864C421.925 26.416 422.512 25.808 422.939 25.04C423.365 24.2507 423.579 23.3547 423.579 22.352C423.579 21.3707 423.355 20.496 422.907 19.728C422.48 18.96 421.893 18.3627 421.147 17.936C420.421 17.488 419.579 17.264 418.619 17.264C417.659 17.264 416.805 17.488 416.059 17.936C415.312 18.3627 414.725 18.96 414.299 19.728C413.872 20.496 413.659 21.3707 413.659 22.352C413.659 23.3547 413.872 24.2507 414.299 25.04C414.725 25.808 415.312 26.416 416.059 26.864C416.805 27.312 417.659 27.536 418.619 27.536ZM429.799 30V14.8H432.68V30H429.799ZM432.68 21.328L431.592 20.848C431.592 18.9067 432.04 17.36 432.936 16.208C433.832 15.056 435.122 14.48 436.808 14.48C437.576 14.48 438.269 14.6187 438.888 14.896C439.506 15.152 440.082 15.5893 440.616 16.208L438.728 18.16C438.408 17.8187 438.056 17.5733 437.672 17.424C437.288 17.2747 436.84 17.2 436.328 17.2C435.261 17.2 434.386 17.5413 433.704 18.224C433.021 18.9067 432.68 19.9413 432.68 21.328ZM444.948 30V8.432H447.828V30H444.948ZM441.204 17.424V14.8H451.572V17.424H441.204ZM460.965 30.32C459.45 30.32 458.085 29.9787 456.869 29.296C455.653 28.592 454.693 27.6427 453.989 26.448C453.285 25.2533 452.933 23.8987 452.933 22.384C452.933 20.8907 453.274 19.5467 453.957 18.352C454.661 17.1573 455.599 16.2187 456.773 15.536C457.967 14.832 459.301 14.48 460.773 14.48C462.181 14.48 463.418 14.8 464.485 15.44C465.573 16.08 466.415 16.9653 467.013 18.096C467.631 19.2267 467.941 20.5067 467.941 21.936C467.941 22.1493 467.93 22.384 467.909 22.64C467.887 22.8747 467.845 23.152 467.781 23.472H454.949V21.072H466.245L465.189 22C465.189 20.976 465.007 20.112 464.645 19.408C464.282 18.6827 463.77 18.128 463.109 17.744C462.447 17.3387 461.647 17.136 460.709 17.136C459.727 17.136 458.863 17.3493 458.117 17.776C457.37 18.2027 456.794 18.8 456.389 19.568C455.983 20.336 455.781 21.2427 455.781 22.288C455.781 23.3547 455.994 24.2933 456.421 25.104C456.847 25.8933 457.455 26.512 458.245 26.96C459.034 27.3867 459.941 27.6 460.965 27.6C461.818 27.6 462.597 27.4507 463.301 27.152C464.026 26.8533 464.645 26.4053 465.157 25.808L467.013 27.696C466.287 28.5493 465.391 29.2 464.325 29.648C463.279 30.096 462.159 30.32 460.965 30.32ZM477.513 30.32C476.105 30.32 474.846 29.9787 473.737 29.296C472.627 28.592 471.742 27.6427 471.081 26.448C470.441 25.2533 470.121 23.9093 470.121 22.416C470.121 20.9227 470.441 19.5787 471.081 18.384C471.742 17.1893 472.627 16.24 473.737 15.536C474.846 14.832 476.105 14.48 477.513 14.48C478.643 14.48 479.667 14.7253 480.585 15.216C481.502 15.6853 482.238 16.3467 482.793 17.2C483.369 18.032 483.689 19.0027 483.753 20.112V24.688C483.689 25.776 483.379 26.7467 482.825 27.6C482.27 28.4533 481.534 29.1253 480.617 29.616C479.699 30.0853 478.665 30.32 477.513 30.32ZM477.993 27.6C478.953 27.6 479.785 27.376 480.489 26.928C481.214 26.48 481.779 25.872 482.185 25.104C482.59 24.3147 482.793 23.4187 482.793 22.416C482.793 21.3707 482.579 20.464 482.153 19.696C481.747 18.928 481.182 18.32 480.457 17.872C479.753 17.424 478.921 17.2 477.961 17.2C477.001 17.2 476.158 17.424 475.433 17.872C474.707 18.32 474.131 18.9387 473.705 19.728C473.299 20.496 473.097 21.3813 473.097 22.384C473.097 23.408 473.299 24.3147 473.705 25.104C474.131 25.872 474.707 26.48 475.433 26.928C476.179 27.376 477.033 27.6 477.993 27.6ZM485.513 30H482.601V25.904L483.145 22.192L482.601 18.512V7.152H485.513V30ZM504.362 30.32C503.21 30.32 502.165 30.0853 501.226 29.616C500.309 29.1253 499.573 28.4533 499.018 27.6C498.463 26.7467 498.154 25.776 498.09 24.688V20.112C498.154 19.0027 498.463 18.032 499.018 17.2C499.594 16.3467 500.341 15.6853 501.258 15.216C502.197 14.7253 503.231 14.48 504.362 14.48C505.749 14.48 506.997 14.832 508.106 15.536C509.237 16.24 510.122 17.1893 510.762 18.384C511.402 19.5787 511.722 20.9227 511.722 22.416C511.722 23.9093 511.402 25.2533 510.762 26.448C510.122 27.6427 509.237 28.592 508.106 29.296C506.997 29.9787 505.749 30.32 504.362 30.32ZM496.362 30V7.152H499.242V18.512L498.698 22.192L499.242 25.904V30H496.362ZM503.882 27.6C504.842 27.6 505.685 27.376 506.41 26.928C507.135 26.48 507.711 25.872 508.138 25.104C508.565 24.3147 508.778 23.408 508.778 22.384C508.778 21.3813 508.565 20.4853 508.138 19.696C507.711 18.9067 507.135 18.2987 506.41 17.872C505.685 17.424 504.853 17.2 503.914 17.2C502.954 17.2 502.111 17.424 501.386 17.872C500.661 18.2987 500.095 18.9067 499.69 19.696C499.285 20.4853 499.082 21.392 499.082 22.416C499.082 23.4187 499.274 24.3147 499.658 25.104C500.063 25.872 500.629 26.48 501.354 26.928C502.101 27.376 502.943 27.6 503.882 27.6ZM519.417 30.128L512.825 14.8H516.025L520.921 26.8H519.897L525.049 14.8H528.249L521.145 30.128H519.417ZM515.065 36.368L519.545 27.184L521.145 30.128L518.265 36.368H515.065Z" fill="black"/>
</svg>
