<svg width="123" height="39" viewBox="0 0 123 39" fill="none" xmlns="http://www.w3.org/2000/svg">
<path d="M121.895 11.307C120.785 8.13278 117.76 5.85338 114.206 5.85338H114.132C111.821 5.85338 109.739 6.81487 108.257 8.35838C106.773 6.81487 104.691 5.85338 102.383 5.85338H102.309C100.278 5.85338 98.422 6.5969 96.9964 7.82767V7.20204C96.9477 6.57895 96.4348 6.0893 95.8015 6.0893H90.3505C89.6839 6.0893 89.1454 6.62772 89.1454 7.29689V36.8983C89.1454 37.5674 89.6839 38.1059 90.3505 38.1059H95.8015C96.4092 38.1059 96.9092 37.6521 96.9887 37.0649L96.9861 15.8145C96.9856 15.7434 96.989 15.6724 96.9963 15.6017C97.0835 14.653 97.7783 13.8736 98.8758 13.7761H99.8808C100.34 13.8171 100.727 13.9787 101.032 14.2222C101.506 14.5992 101.77 15.1786 101.77 15.8145L101.791 36.9598C101.791 37.629 102.332 38.17 102.996 38.17H108.447C109.091 38.17 109.614 37.6572 109.644 37.0188L109.642 15.7863C109.639 15.0889 109.962 14.4582 110.529 14.0838C110.809 13.9043 111.144 13.7838 111.532 13.7479H112.537C113.716 13.8505 114.429 14.7453 114.426 15.7863L114.447 36.9034C114.447 37.5726 114.988 38.111 115.652 38.111H121.103C121.767 38.111 122.308 37.5726 122.308 36.9034V14.1915C122.308 12.6428 122.134 11.9839 121.895 11.307ZM84.9927 6.16642H81.8749V1.09994C81.8749 0.492264 81.3826 0 80.7749 0C80.7031 0 80.6339 0.0101752 80.5673 0.0230397C77.111 0.971736 77.8032 5.75875 71.4933 6.16642H70.8804C70.7881 6.16642 70.701 6.17921 70.6164 6.19716C70.0779 6.31774 69.6729 6.79714 69.6729 7.37153V12.8226C69.6729 13.4866 70.2138 14.0276 70.8804 14.0276H74.1701L74.165 37.1421C74.165 37.801 74.6983 38.3344 75.3572 38.3344H80.7467C81.4031 38.3344 81.9365 37.801 81.9365 37.1421L81.939 14.0276H84.9927C85.6568 14.0276 86.1977 13.4866 86.1977 12.8226V7.37153C86.1977 6.70745 85.6568 6.16642 84.9927 6.16642Z" fill="#00BAF2"/>
<path d="M65.38 6.16647H59.9289C59.2648 6.16647 58.7264 6.7075 58.7264 7.37151V18.6429C58.7136 19.3403 58.1495 19.8993 57.4495 19.8993H55.1676C54.4599 19.8993 53.8881 19.33 53.8881 18.6224L53.8676 7.37158C53.8676 6.7075 53.3266 6.16654 52.6626 6.16654H47.2115C46.5448 6.16654 46.0064 6.7075 46.0064 7.37158V19.7249C46.0064 24.417 49.3524 27.7631 54.0471 27.7631C54.0471 27.7631 57.57 27.7631 57.6777 27.7836C58.3136 27.8554 58.8084 28.3886 58.8084 29.045C58.8084 29.6937 58.3239 30.2245 57.6957 30.304C57.6649 30.3091 57.6367 30.3168 57.6034 30.3219L49.6319 30.3501C48.9652 30.3501 48.4268 30.8911 48.4268 31.5552V37.0037C48.4268 37.6703 48.9652 38.2088 49.6319 38.2088H58.5444C63.2416 38.2088 66.585 34.8653 66.585 30.1707V7.37158C66.585 6.7075 66.0466 6.16647 65.38 6.16647ZM12.6174 16.1546V19.5186C12.6174 20.2236 12.0457 20.798 11.3406 20.798L7.88175 20.8005V14.0598H11.3406C12.0457 14.0598 12.6174 14.6289 12.6174 15.3366V16.1546ZM13.0969 6.16516H1.182C0.528168 6.16516 0 6.69595 0 7.34716V12.688C0 12.6983 0.00254381 12.7085 0.00254381 12.7187C0.00254381 12.7444 0 12.7701 0 12.7931V36.9665C0 37.6229 0.492264 38.1588 1.10256 38.1742H6.65606C7.32014 38.1742 7.8611 37.6357 7.8611 36.9691L7.88167 28.6848H13.0968C17.4607 28.6848 20.5017 25.6567 20.5017 21.2748V13.5855C20.5017 9.20356 17.4608 6.16516 13.0969 6.16516ZM35.2347 28.952V29.8032C35.2347 29.8725 35.2245 29.9391 35.2143 30.0032C35.2015 30.0633 35.1843 30.1225 35.163 30.1801C34.9937 30.6571 34.5168 31.0032 33.9501 31.0032H31.6811C30.9734 31.0032 30.3965 30.4647 30.3965 29.8032V28.7751C30.3965 28.7623 30.3939 28.7494 30.3939 28.7366L30.3965 26.0009V25.1444L30.3991 25.1368C30.4016 24.4778 30.9734 23.9445 31.6811 23.9445H33.9501C34.6604 23.9445 35.2348 24.4804 35.2348 25.1445L35.2347 28.952ZM34.3682 6.19649H26.8044C26.1352 6.19649 25.5942 6.70416 25.5942 7.32717V9.44762C25.5942 9.46041 25.5968 9.47582 25.5968 9.48862C25.5968 9.50402 25.5942 9.51936 25.5942 9.53477V12.4398C25.5942 13.0988 26.1686 13.6372 26.8762 13.6372H34.0784C34.6477 13.727 35.0989 14.1423 35.163 14.791V15.4935C35.0989 16.1115 34.6528 16.5627 34.1092 16.614H30.5427C25.7993 16.614 22.42 19.7652 22.42 24.1906V30.5288C22.42 34.9287 25.325 38.0592 30.035 38.0592H39.9192C41.6935 38.0592 43.1319 36.7158 43.1319 35.062V14.3782C43.1319 9.36302 40.5475 6.19649 34.3682 6.19649Z" fill="#1F336B"/>
</svg>
