<svg width="20" height="21" viewBox="0 0 20 21" fill="none" xmlns="http://www.w3.org/2000/svg">
<g clip-path="url(#clip0_1_123)">
<path d="M10.9375 0.499782C15.9414 0.499782 20 4.55838 20 9.56228C20 10.0818 19.582 10.4998 19.0625 10.4998C18.543 10.4998 18.125 10.0818 18.125 9.56228C18.125 5.59353 14.9062 2.37478 10.9375 2.37478C10.418 2.37478 10 1.95681 10 1.43728C10 0.917751 10.418 0.499782 10.9375 0.499782ZM11.25 7.99978C11.5815 7.99978 11.8995 8.13148 12.1339 8.3659C12.3683 8.60032 12.5 8.91826 12.5 9.24978C12.5 9.5813 12.3683 9.89925 12.1339 10.1337C11.8995 10.3681 11.5815 10.4998 11.25 10.4998C10.9185 10.4998 10.6005 10.3681 10.3661 10.1337C10.1317 9.89925 10 9.5813 10 9.24978C10 8.91826 10.1317 8.60032 10.3661 8.3659C10.6005 8.13148 10.9185 7.99978 11.25 7.99978ZM10 5.18728C10 4.66775 10.418 4.24978 10.9375 4.24978C13.8711 4.24978 16.25 6.62869 16.25 9.56228C16.25 10.0818 15.832 10.4998 15.3125 10.4998C14.793 10.4998 14.375 10.0818 14.375 9.56228C14.375 7.66385 12.8359 6.12478 10.9375 6.12478C10.418 6.12478 10 5.70681 10 5.18728ZM4.58984 0.55447C5.34766 0.347438 6.14062 0.734157 6.44141 1.46072L8.00391 5.21072C8.26953 5.84744 8.08594 6.58572 7.55078 7.01931L5.625 8.59744C6.92578 11.3474 9.15234 13.574 11.9023 14.8748L13.4766 12.949C13.9141 12.4138 14.6484 12.2303 15.2852 12.4959L19.0352 14.0584C19.7617 14.3592 20.1484 15.1521 19.9414 15.9099L19.0039 19.3474C18.8203 20.0271 18.2031 20.4998 17.5 20.4998C7.83594 20.4998 0 12.6638 0 2.99978C0 2.29666 0.472656 1.67947 1.15234 1.49197L4.58984 0.55447Z" fill="#2C3E50"/>
</g>
<defs>
<clipPath id="clip0_1_123">
<rect width="20" height="20" fill="white" transform="translate(0 0.5)"/>
</clipPath>
</defs>
</svg>
